<svg width="29" height="29" viewBox="0 0 29 29" fill="none" xmlns="http://www.w3.org/2000/svg">
    <path d="M14.5 12.6875C13.3051 12.6875 12.137 12.3332 11.1434 11.6693C10.1499 11.0054 9.37549 10.0618 8.91821 8.95787C8.46093 7.8539 8.34129 6.63912 8.5744 5.46716C8.80752 4.29519 9.38294 3.21866 10.2279 2.37372C11.0728 1.52878 12.1493 0.953367 13.3213 0.720248C14.4933 0.487129 15.7081 0.606774 16.812 1.06405C17.916 1.52133 18.8596 2.29571 19.5234 3.28926C20.1873 4.2828 20.5416 5.4509 20.5416 6.64583C20.5416 8.24818 19.9051 9.7849 18.7721 10.9179C17.6391 12.051 16.1023 12.6875 14.5 12.6875V12.6875ZM14.5 3.02083C13.783 3.02083 13.0822 3.23343 12.486 3.63175C11.8899 4.03007 11.4253 4.59622 11.1509 5.2586C10.8766 5.92098 10.8048 6.64985 10.9446 7.35303C11.0845 8.05621 11.4298 8.70212 11.9367 9.20909C12.4437 9.71605 13.0896 10.0613 13.7928 10.2012C14.496 10.341 15.2248 10.2693 15.8872 9.99489C16.5496 9.72052 17.1157 9.2559 17.5141 8.65977C17.9124 8.06364 18.125 7.36278 18.125 6.64583C18.125 5.68442 17.7431 4.76238 17.0632 4.08256C16.3834 3.40274 15.4614 3.02083 14.5 3.02083Z" fill="black"/>
    <path d="M25.375 28.3958H3.62502C3.30455 28.3958 2.99721 28.2685 2.7706 28.0419C2.54399 27.8153 2.41669 27.508 2.41669 27.1875V23.5625C2.41669 20.9987 3.43514 18.54 5.24799 16.7271C7.06084 14.9143 9.51959 13.8958 12.0834 13.8958H16.9167C19.4804 13.8958 21.9392 14.9143 23.7521 16.7271C25.5649 18.54 26.5834 20.9987 26.5834 23.5625V27.1875C26.5834 27.508 26.456 27.8153 26.2294 28.0419C26.0028 28.2685 25.6955 28.3958 25.375 28.3958ZM4.83335 25.9792H24.1667V23.5625C24.1667 21.6397 23.4028 19.7956 22.0432 18.436C20.6836 17.0763 18.8395 16.3125 16.9167 16.3125H12.0834C10.1605 16.3125 8.31647 17.0763 6.95683 18.436C5.59719 19.7956 4.83335 21.6397 4.83335 23.5625V25.9792Z" fill="black"/>
</svg>
