<svg width="29" height="29" viewBox="0 0 29 29" fill="none" xmlns="http://www.w3.org/2000/svg">
    <path d="M25.3276 19.3333H10.1398C9.88777 19.3337 9.64312 19.2506 9.44601 19.0976C9.24889 18.9446 9.11104 18.7309 9.0551 18.4915L6.49777 7.63594C6.46036 7.47737 6.46013 7.31262 6.49711 7.15395C6.53409 6.99528 6.60732 6.84678 6.71134 6.71949C6.81537 6.59221 6.94751 6.48942 7.09795 6.41878C7.24838 6.34813 7.41323 6.31145 7.58023 6.31146H27.8871C28.0543 6.31113 28.2194 6.34757 28.3701 6.41807C28.5208 6.48857 28.6533 6.59132 28.7575 6.71864C28.8618 6.84597 28.9352 6.99459 28.9723 7.15342C29.0094 7.31225 29.0093 7.47719 28.9718 7.63594L26.41 18.4915C26.3542 18.7305 26.2166 18.944 26.02 19.0969C25.8233 19.2499 25.5792 19.3332 25.3276 19.3333V19.3333ZM11.0238 17.1691H24.4435L26.4922 8.47781H8.9744L11.0238 17.1691Z" fill="black"/>
    <path d="M12.3129 29C11.4712 29 10.6483 28.7568 9.94848 28.3012C9.24861 27.8455 8.70314 27.1979 8.38102 26.4403C8.05891 25.6826 7.97463 24.8488 8.13884 24.0445C8.30306 23.2401 8.70838 22.5013 9.30357 21.9214C9.89875 21.3415 10.6571 20.9465 11.4826 20.7865C12.3082 20.6265 13.1639 20.7087 13.9415 21.0225C14.7192 21.3363 15.3838 21.8678 15.8515 22.5497C16.3191 23.2316 16.5687 24.0333 16.5687 24.8534C16.5675 25.9528 16.1188 27.0068 15.3209 27.7842C14.523 28.5616 13.4412 28.9989 12.3129 29V29ZM12.3129 22.8718C11.9104 22.8718 11.517 22.988 11.1824 23.2059C10.8478 23.4238 10.587 23.7334 10.4331 24.0957C10.2791 24.458 10.2388 24.8566 10.3174 25.2412C10.396 25.6257 10.5898 25.979 10.8745 26.2562C11.1591 26.5334 11.5217 26.7221 11.9164 26.7985C12.3111 26.8749 12.7202 26.8356 13.092 26.6854C13.4638 26.5353 13.7815 26.2811 14.005 25.955C14.2284 25.6289 14.3476 25.2455 14.3475 24.8534C14.3469 24.3279 14.1323 23.8241 13.7509 23.4526C13.3694 23.081 12.8522 22.8721 12.3129 22.8718V22.8718Z" fill="black"/>
    <path d="M23.1537 29C22.312 29 21.4892 28.7568 20.7893 28.3012C20.0894 27.8455 19.544 27.1979 19.2218 26.4403C18.8997 25.6826 18.8155 24.8488 18.9797 24.0445C19.1439 23.2401 19.5492 22.5013 20.1444 21.9214C20.7396 21.3415 21.4979 20.9465 22.3234 20.7865C23.149 20.6265 24.0047 20.7087 24.7823 21.0225C25.56 21.3363 26.2246 21.8678 26.6923 22.5497C27.1599 23.2316 27.4095 24.0333 27.4095 24.8534C27.4083 25.9528 26.9596 27.0068 26.1617 27.7842C25.3638 28.5616 24.282 28.9989 23.1537 29V29ZM23.1537 22.8718C22.7513 22.8718 22.3579 22.988 22.0232 23.2059C21.6886 23.4238 21.4279 23.7334 21.2739 24.0957C21.1199 24.458 21.0797 24.8566 21.1582 25.2412C21.2368 25.6257 21.4307 25.979 21.7153 26.2562C21.9999 26.5334 22.3625 26.7221 22.7572 26.7985C23.1519 26.8749 23.5611 26.8356 23.9328 26.6854C24.3046 26.5353 24.6223 26.2811 24.8458 25.955C25.0693 25.6289 25.1885 25.2455 25.1883 24.8534C25.1877 24.3279 24.9732 23.8241 24.5917 23.4526C24.2102 23.081 23.6931 22.8721 23.1537 22.8718Z" fill="black"/>
    <path d="M7.5802 8.47565C7.34707 8.47562 7.11987 8.40413 6.93077 8.27129C6.74168 8.13845 6.60028 7.951 6.52661 7.7355L4.62305 2.16418H1.1106C0.816048 2.16418 0.533564 2.05017 0.325286 1.84724C0.117009 1.64431 0 1.36908 0 1.08209C0 0.795101 0.117009 0.519868 0.325286 0.316937C0.533564 0.114006 0.816048 0 1.1106 0H5.42712C5.66024 2.10159e-05 5.88745 0.0715169 6.07654 0.204358C6.26564 0.337199 6.40704 0.524649 6.4807 0.740149L8.63748 7.05162C8.69308 7.21426 8.70822 7.38745 8.68166 7.55691C8.6551 7.72638 8.5876 7.88727 8.48471 8.02633C8.38182 8.16539 8.2465 8.27865 8.08988 8.35677C7.93327 8.43488 7.75984 8.47563 7.5839 8.47565H7.5802Z" fill="black"/>
</svg>
