<svg width="44" height="44" viewBox="0 0 44 44" fill="none" xmlns="http://www.w3.org/2000/svg">
    <path d="M19.8964 21.8525L0.4223 41.328C-0.118762 41.869 -0.118762 42.7456 0.4223 43.2874C0.692488 43.5576 1.04793 43.693 1.4013 43.693C1.75605 43.693 2.10942 43.5576 2.3803 43.2874L22.0022 23.6634L41.6235 43.2846C41.895 43.5562 42.2491 43.6902 42.6032 43.6902C42.9572 43.6902 43.3113 43.5562 43.5822 43.2846C44.1239 42.7442 44.1239 41.8684 43.5822 41.3266L24.1074 21.8525L43.5945 2.36324C44.1356 1.82218 44.1356 0.945615 43.5945 0.403865C43.0535 -0.135822 42.1769 -0.135822 41.6365 0.403865L22.0015 20.0402L2.36724 0.40524C1.82411 -0.135135 0.948925 -0.135135 0.4058 0.40524C-0.134575 0.946303 -0.134575 1.82287 0.4058 2.36462L19.8964 21.8525Z" fill="#1D1D1B"/>
</svg>
