<svg width="30" height="30" viewBox="0 0 30 30" fill="none" xmlns="http://www.w3.org/2000/svg">
    <path d="M13.5656 14.8996L0.287792 28.1784C-0.0811145 28.5473 -0.0811145 29.145 0.287792 29.5143C0.472011 29.6985 0.714354 29.7909 0.955292 29.7909C1.19717 29.7909 1.4381 29.6985 1.62279 29.5143L15.0014 16.1343L28.3795 29.5125C28.5647 29.6976 28.8061 29.789 29.0475 29.789C29.2889 29.789 29.5303 29.6976 29.715 29.5125C30.0844 29.144 30.0844 28.5468 29.715 28.1775L16.4367 14.8996L29.7234 1.61152C30.0923 1.24261 30.0923 0.644955 29.7234 0.27558C29.3545 -0.0923889 28.7569 -0.0923889 28.3884 0.27558L15.0009 13.664L1.61389 0.276517C1.24357 -0.0919202 0.646854 -0.0919202 0.276542 0.276517C-0.0918958 0.645424 -0.0918958 1.24308 0.276542 1.61245L13.5656 14.8996Z" fill="#1D1D1B"/>
</svg>
