<svg width="49" height="41" viewBox="0 0 49 41" fill="none" xmlns="http://www.w3.org/2000/svg">
    <g clip-path="url(#clip0_2_2)">
        <path d="M6.85001 14.2454H7.10001C7.40001 14.2959 7.70001 14.0937 7.80001 13.7904C7.85001 13.5376 7.90001 13.3354 7.90001 13.0826V10.5549C7.90001 9.94821 8.30001 9.44266 8.90001 9.291L11.3 8.73489C12.1 8.53268 12.8 7.97657 13.2 7.21825L14.25 4.99383C14.5 4.48829 15.1 4.18496 15.65 4.33662L18.1 4.89273C18.9 5.09494 19.8 4.89272 20.45 4.33662L22.4 2.76942C22.85 2.41554 23.5 2.41554 23.95 2.76942L25.9 4.33662C26.55 4.89272 27.45 5.09494 28.25 4.89273L30.65 4.33662C30.75 4.33662 30.85 4.28607 30.95 4.28607C31.45 4.28607 31.85 4.53884 32.05 4.99383L33.15 7.2688C33.5 8.02713 34.2 8.58323 35.05 8.78545L37.5 9.34155C38.1 9.44266 38.5 9.99877 38.5 10.6054V13.1332C38.5 13.6387 38.75 14.1443 39.15 14.4476C39.3 14.5487 39.45 14.5993 39.6 14.5487C39.75 14.4981 39.9 14.397 39.95 14.2454C40.05 13.942 40.05 13.6893 39.95 13.3859C39.95 13.3354 39.95 13.2343 39.95 13.1332V10.6054C39.95 9.291 39.05 8.17879 37.8 7.87546L35.35 7.31936C34.95 7.2688 34.65 7.01603 34.45 6.66215L33.35 4.38718C32.8 3.22441 31.5 2.5672 30.25 2.87053L27.8 3.42663C27.4 3.52774 27.05 3.42663 26.75 3.17386L24.85 1.60666C23.85 0.797781 22.4 0.797781 21.4 1.60666L19.5 3.1233C19.2 3.37608 18.8 3.47719 18.45 3.37608L16 2.81998C14.75 2.51665 13.45 3.17386 12.9 4.33662L11.8 6.61159C11.65 6.96547 11.3 7.21825 10.95 7.2688L8.50001 7.87546C7.25001 8.17879 6.35001 9.291 6.35001 10.6054V13.1332C6.35001 13.1837 6.35001 13.2848 6.30001 13.3354C6.25001 13.5376 6.25001 13.7904 6.40001 13.9926C6.50001 14.1443 6.65001 14.2454 6.85001 14.2454Z" fill="black"/>
        <path d="M38.85 31.0802C38.65 31.0296 38.4 31.1307 38.25 31.2824C38.1 31.434 38 31.6363 38 31.889V32.4957C38 33.0518 37.6 33.5573 37.1 33.6584L34.75 34.2146C33.95 34.4168 33.25 34.9729 32.9 35.7312L31.85 37.9051C31.6 38.4106 31.1 38.6634 30.55 38.5623L28.2 38.0062C27.4 37.804 26.55 38.0062 25.85 38.5623L23.95 40.0789C23.5 40.4328 22.9 40.4328 22.5 40.0789L20.6 38.5623C19.95 38.0062 19.1 37.8545 18.25 38.0062L15.9 38.5623C15.35 38.7139 14.8 38.4106 14.6 37.9051L13.5 35.7312C13.15 34.9729 12.45 34.4168 11.65 34.2146L9.24999 33.709C8.69999 33.6079 8.34999 33.1023 8.34999 32.5462V32.0912C8.34999 31.6363 7.99999 31.2824 7.54999 31.2824C7.49999 31.2824 7.44999 31.2824 7.44999 31.2824C7.04999 31.3329 6.79999 31.6868 6.79999 32.0407V32.4957C6.79999 33.8101 7.69999 34.9223 8.94999 35.1751L11.3 35.7312C11.65 35.8323 11.95 36.0345 12.1 36.3884L13.15 38.6128C13.7 39.7756 15 40.4328 16.25 40.1295L18.6 39.5734C18.95 39.4723 19.3 39.5734 19.6 39.8261L21.5 41.3428C22.5 42.1517 23.9 42.1517 24.9 41.3428L26.8 39.8261C27.1 39.5734 27.45 39.5228 27.8 39.6239L30.15 40.18C31.4 40.4834 32.7 39.8261 33.25 38.6634L34.3 36.439C34.45 36.1356 34.75 35.8829 35.1 35.7818L37.45 35.2257C38.7 34.9729 39.6 33.8101 39.6 32.5462V31.889C39.55 31.4846 39.25 31.1307 38.85 31.0802Z" fill="black"/>
        <path d="M12 15.1554C11.9 15.0543 11.75 15.0037 11.65 15.0543C10.7 15.1554 9.74999 15.2059 8.74999 15.307C8.49999 15.3576 8.29999 15.5598 8.29999 15.8631L8.84999 22.8397C8.19999 21.9297 5.19999 17.4303 4.09999 16.0148C3.99999 15.8631 3.84999 15.8631 3.64999 15.8631C2.79999 15.9642 1.89999 16.1159 1.04999 16.2676C0.799986 16.3181 0.599986 16.5709 0.649986 16.8237L1.79999 30.2207C1.79999 30.3724 1.89999 30.4735 1.99999 30.5746C2.09999 30.6252 2.19999 30.6757 2.29999 30.6757C2.34999 30.6757 2.34999 30.6757 2.39999 30.6757C3.29999 30.524 4.14999 30.4229 5.04999 30.2713C5.29999 30.2207 5.49999 29.9679 5.49999 29.7152L4.64999 22.3342C5.24999 22.9914 8.39999 27.8952 9.64999 29.4118C9.74999 29.5635 9.89999 29.6141 10.1 29.6141C10.9 29.513 11.7 29.4624 12.55 29.4118C12.8 29.4118 13.05 29.1591 13 28.8557L12.15 15.5093C12.15 15.3576 12.1 15.2059 12 15.1554Z" fill="black"/>
        <path d="M24.2 25.6708C24.1 25.5697 24 25.5191 23.85 25.5191C21.8 25.5191 19.7 25.5697 17.6 25.6708L17.5 23.4969C19.25 23.3958 21.05 23.3958 22.8 23.3453C23.1 23.3453 23.3 23.0925 23.3 22.8397V20.4636C23.3 20.312 23.25 20.2109 23.15 20.1097C23.05 20.0086 22.95 19.9581 22.8 19.9581C21 19.9581 19.2 20.0086 17.4 20.1097L17.3 18.037C19.45 17.9359 21.65 17.8853 23.8 17.8853C24.1 17.8853 24.3 17.6831 24.3 17.3798V15.0037C24.3 14.852 24.25 14.7509 24.15 14.6498C24.05 14.5487 23.95 14.4982 23.8 14.4982C20.5 14.4982 17.1 14.5993 13.8 14.852C13.55 14.852 13.3 15.1048 13.35 15.3576L14.05 28.7546C14.05 28.9063 14.1 29.0074 14.2 29.1085C14.3 29.2096 14.4 29.2602 14.55 29.2602C14.55 29.2602 14.55 29.2602 14.6 29.2602C17.65 29.058 20.8 28.9568 23.9 28.9568C24.2 28.9568 24.4 28.7546 24.4 28.4513V26.0752C24.35 25.9236 24.3 25.7719 24.2 25.6708Z" fill="black"/>
        <path d="M44.2 15.9642C44.1 15.8126 44 15.762 43.85 15.7115C42.85 15.5598 41.8 15.4587 40.8 15.3576C40.55 15.3576 40.35 15.4587 40.25 15.7115C39.65 17.4809 39.1 19.3009 38.5 21.0703C38.3 21.7781 38.05 22.4858 37.85 23.1936C37.7 22.4858 37.6 21.7275 37.45 21.0197C37.1 19.1492 36.7 17.2281 36.3 15.4081C36.25 15.2059 36.05 15.0037 35.85 15.0037C34.95 14.9531 34.05 14.852 33.15 14.8015C32.9 14.8015 32.7 14.9531 32.65 15.1554C32.1 16.8742 31.55 18.5931 31 20.312C30.75 21.1208 30.5 21.9297 30.3 22.7386C30.15 21.9297 30 21.1208 29.8 20.312C29.45 18.5425 29.05 16.7731 28.7 15.0037C28.65 14.8015 28.45 14.5993 28.2 14.5993C27.15 14.5487 26.15 14.5487 25.1 14.5487C24.95 14.5487 24.8 14.5993 24.7 14.7509C24.6 14.852 24.55 15.0543 24.6 15.2059C25.8 19.6548 26.95 24.1541 28 28.6535C28.05 28.8557 28.25 29.058 28.45 29.058C29.45 29.1085 30.4 29.1085 31.4 29.1591C31.65 29.1591 31.85 29.0074 31.9 28.8052C32.4 27.1874 32.85 25.5191 33.4 23.8508C33.65 23.0925 33.85 22.3847 34.1 21.6264C34.25 22.3847 34.4 23.143 34.55 23.9014C34.9 25.5697 35.2 27.3391 35.5 29.058C35.55 29.2602 35.75 29.4624 35.95 29.4624C36.9 29.5635 37.9 29.6141 38.85 29.7152H38.9C39.1 29.7152 39.3 29.5635 39.35 29.3613C40.85 25.0641 42.45 20.7164 44.1 16.4698C44.25 16.2676 44.25 16.1159 44.2 15.9642Z" fill="black"/>
        <path d="M44.45 26.2774C45.2 26.3785 45.9 26.4797 46.65 26.5808H46.7C46.8 26.5808 46.9 26.5302 47 26.4797C47.1 26.3785 47.2 26.2774 47.2 26.1258C47.6 22.9914 48.05 19.857 48.45 16.7226C48.5 16.4698 48.3 16.217 48.05 16.1665C47.2 16.0148 46.3 15.9137 45.45 15.762C45.3 15.762 45.2 15.762 45.05 15.8631C44.95 15.9642 44.9 16.0654 44.85 16.217C44.55 19.4525 44.3 22.5869 44 25.7213C43.95 26.0247 44.15 26.2269 44.45 26.2774Z" fill="black"/>
        <path d="M45.55 26.4797C45 26.3786 44.45 26.5302 44 26.8841C43.6 27.1874 43.35 27.693 43.3 28.1985C43.2 29.3613 43.95 30.3724 45.1 30.5746C45.2 30.5746 45.3 30.5746 45.4 30.5746C45.85 30.5746 46.25 30.4229 46.6 30.1702C47.05 29.8163 47.3 29.3613 47.4 28.7546C47.5 27.693 46.7 26.6819 45.55 26.4797Z" fill="black"/>
    </g>
    <defs>
        <clipPath id="clip0_2_2">
            <rect width="49" height="41" fill="white"/>
        </clipPath>
    </defs>
</svg>
