<svg width="18" height="18" viewBox="0 0 18 18" fill="none" xmlns="http://www.w3.org/2000/svg">
    <path d="M17.7731 16.7107L12.6087 11.5426C13.6268 10.3216 14.2392 8.76115 14.2392 7.05688C14.2392 3.16877 11.0483 0.00738525 7.12327 0.00738525C3.19828 0.00738525 0 3.17246 0 7.06057C0 10.9487 3.1909 14.1101 7.11589 14.1101C8.78328 14.1101 10.3179 13.5383 11.5352 12.5829L16.7181 17.7658C17.0206 18.0683 17.4706 18.0683 17.7731 17.7658C18.0756 17.4633 18.0756 17.0132 17.7731 16.7107ZM1.51245 7.06057C1.51245 4.00616 4.02828 1.52352 7.11589 1.52352C10.2035 1.52352 12.7193 4.00616 12.7193 7.06057C12.7193 10.115 10.2035 12.5976 7.11589 12.5976C4.02828 12.5976 1.51245 10.1113 1.51245 7.06057Z" fill="black"/>
</svg>
